<?xml version="1.0" standalone="no"?>
<!DOCTYPE svg PUBLIC "-//W3C//DTD SVG 20010904//EN"
 "http://www.w3.org/TR/2001/REC-SVG-20010904/DTD/svg10.dtd">
<svg version="1.0" xmlns="http://www.w3.org/2000/svg"
 width="1280.000000pt" height="905.000000pt" viewBox="0 0 1280.000000 905.000000"
 preserveAspectRatio="xMidYMid meet">
<g transform="translate(0.000000,905.000000) scale(0.100000,-0.100000)"
fill="#000000" stroke="none">
<path d="M6905 8403 c-93 -60 -348 -223 -565 -363 -917 -589 -1383 -888 -1505
-966 -1075 -686 -1592 -1024 -1612 -1054 -16 -22 -23 -48 -23 -79 0 -50 3 -56
338 -656 89 -160 162 -296 162 -302 0 -6 -45 -15 -105 -22 -180 -20 -313 -76
-525 -219 -172 -115 -206 -158 -245 -307 -30 -118 -8 -253 44 -270 25 -7 12
-16 227 156 201 161 296 227 410 281 73 35 87 39 98 27 7 -8 35 -84 61 -169
102 -332 208 -611 325 -860 43 -91 110 -235 150 -320 115 -248 410 -827 535
-1053 63 -114 115 -212 115 -218 0 -5 -78 -99 -174 -207 -211 -238 -238 -273
-279 -360 -28 -60 -32 -77 -32 -157 0 -113 24 -172 99 -244 57 -53 166 -113
240 -132 25 -6 46 -16 46 -21 0 -5 -15 -24 -34 -42 -115 -108 1 -263 234 -312
95 -20 210 -14 274 15 129 56 72 211 -115 314 -20 11 -29 21 -23 27 10 10 419
57 779 90 635 56 1227 77 1728 61 311 -11 417 -18 417 -27 0 -2 -27 -29 -59
-61 -91 -89 -102 -166 -37 -261 61 -88 200 -142 367 -143 320 -1 442 166 269
366 -27 31 -38 51 -30 53 7 3 73 -3 147 -13 156 -20 218 -17 262 14 53 38 54
107 1 180 -43 59 -104 85 -250 110 -721 118 -1570 132 -2520 40 -291 -28 -698
-79 -1025 -129 -309 -47 -370 -51 -417 -23 -62 36 -68 130 -14 209 22 32 564
614 572 614 2 0 101 29 221 64 811 239 1475 372 2073 416 315 23 740 12 977
-25 138 -22 175 -20 206 11 15 14 30 43 33 62 16 86 -8 678 -41 1017 -44 442
-152 1034 -225 1228 -12 32 -19 61 -16 64 3 4 192 107 419 229 226 122 424
233 440 247 21 19 27 34 27 67 0 23 -5 50 -11 61 -11 21 -1857 2800 -1959
2949 -55 80 -61 86 -126 113 -38 15 -89 31 -114 33 -44 6 -51 2 -215 -103z
m242 -430 c50 -76 206 -318 348 -538 142 -220 301 -467 355 -550 412 -637 664
-1032 667 -1046 6 -20 -3 -25 -607 -359 l-455 -252 -125 -9 c-386 -27 -803
-129 -1360 -332 -107 -39 -131 -39 -100 0 11 14 20 37 20 52 0 14 -26 133 -57
265 l-58 238 29 25 c25 21 31 23 43 10 8 -8 40 -118 70 -243 31 -126 60 -235
65 -241 17 -21 32 -16 116 38 114 72 113 66 58 300 -97 407 -99 414 -122 417
-14 2 -68 -27 -146 -77 -69 -45 -130 -81 -136 -81 -12 0 -22 32 -48 147 -18
83 -32 100 -65 83 -71 -39 -159 -103 -165 -123 -12 -37 -7 -63 95 -485 55
-224 101 -414 103 -422 5 -21 -63 -54 -78 -37 -6 6 -25 77 -44 157 -39 174
-45 190 -66 190 -9 0 -71 -36 -138 -80 -68 -44 -130 -80 -139 -80 -10 0 -19
11 -23 28 -3 15 -10 44 -16 66 -12 50 -5 79 27 96 30 16 32 15 54 -46 12 -33
23 -49 34 -48 27 3 166 94 184 121 15 23 15 31 -3 110 -11 52 -25 90 -35 96
-13 8 -64 -20 -253 -142 -130 -85 -241 -162 -246 -172 -16 -30 -10 -88 23
-214 27 -102 35 -120 53 -123 13 -2 70 28 148 79 87 56 130 79 137 72 6 -6 22
-55 36 -109 l25 -99 -29 -22 c-39 -32 -51 -29 -62 15 -5 20 -15 56 -21 79 -18
69 -38 72 -127 17 -98 -61 -111 -88 -92 -187 7 -41 9 -71 3 -76 -5 -4 -131
-71 -281 -147 -241 -123 -274 -137 -287 -124 -17 18 -889 1526 -935 1619 -18
34 -31 64 -29 66 3 3 113 72 1778 1115 679 426 1352 847 1495 937 143 89 267
163 276 163 9 0 53 -56 106 -137z m-377 -3112 c0 -13 -63 -51 -84 -51 -9 0
-16 8 -16 20 0 13 10 22 33 29 43 12 67 13 67 2z m-240 -95 c0 -24 -6 -48 -12
-54 -42 -33 -653 -361 -660 -354 -11 11 10 232 24 249 16 20 580 201 631 203
14 0 17 -9 17 -44z m1825 -59 c23 -19 29 -37 45 -147 32 -206 48 -391 35 -396
-6 -3 -44 11 -85 30 -41 19 -115 48 -163 64 -49 17 -90 32 -92 34 -5 5 -25
219 -25 269 l0 48 113 60 c61 34 120 61 129 61 9 0 29 -10 43 -23z m-2625
-192 c0 -66 -22 -240 -32 -252 -13 -16 -622 -353 -650 -361 -19 -5 -20 -2 -14
59 14 131 37 302 41 309 9 14 179 90 580 257 69 30 75 29 75 -12z m2248 -79
c9 -68 10 -102 3 -109 -7 -7 -49 -5 -133 7 -68 9 -142 20 -165 23 -24 3 -43 9
-43 13 0 11 293 168 310 166 11 -1 18 -26 28 -100z m-1020 -11 c34 -28 50 -78
33 -99 -13 -15 -162 -41 -186 -32 -21 8 -20 85 3 112 41 50 104 58 150 19z
m931 -239 c51 -8 98 -19 103 -24 9 -9 32 -319 40 -537 l3 -100 -50 0 c-27 1
-105 6 -172 13 -67 7 -178 12 -246 12 -69 0 -132 3 -141 6 -14 5 -16 41 -16
303 0 163 3 306 6 318 4 15 16 23 38 27 55 8 339 -4 435 -18z m-2959 -13 c0
-54 -32 -328 -40 -350 -6 -14 -38 -37 -81 -58 -59 -30 -74 -34 -84 -23 -20 22
-155 260 -155 274 0 12 322 183 348 184 7 0 12 -12 12 -27z m2352 -105 c3 -57
3 -195 -1 -308 l-6 -205 -25 -7 c-14 -3 -88 -12 -165 -18 -77 -6 -203 -20
-280 -31 -77 -12 -151 -22 -165 -22 l-25 -2 2 150 c1 83 6 164 11 180 7 27 40
47 318 197 170 92 314 168 320 168 7 0 13 -38 16 -102z m958 37 c58 -20 130
-48 160 -63 53 -26 55 -28 62 -77 13 -97 29 -548 20 -557 -6 -6 -53 4 -118 25
-60 19 -128 38 -151 41 -23 4 -46 13 -51 19 -8 10 -17 112 -49 565 -5 66 -3
82 8 82 8 0 61 -16 119 -35z m-1770 -515 c0 -76 -4 -141 -8 -144 -5 -3 -82
-21 -173 -41 -90 -20 -233 -54 -317 -76 -84 -21 -159 -39 -167 -39 -16 0 -21
65 -7 86 10 16 655 363 665 357 4 -2 7 -67 7 -143z m1420 -210 c135 -14 149
-18 155 -43 2 -12 6 -121 7 -241 l3 -219 -235 -4 c-129 -1 -269 -6 -311 -11
-42 -4 -82 -6 -88 -4 -13 4 -16 523 -3 537 9 9 339 -1 472 -15z m-616 -262 c0
-148 -4 -271 -7 -275 -4 -3 -64 -14 -134 -24 -71 -10 -214 -34 -320 -54 -105
-19 -199 -35 -209 -35 -16 0 -17 20 -10 288 4 158 11 290 15 295 17 17 496 76
601 73 l65 -1 -1 -267z m-2582 90 c46 -83 98 -166 116 -184 17 -18 32 -38 32
-44 0 -17 -49 -35 -61 -23 -12 12 -171 352 -184 392 -17 53 18 3 97 -141z
m3638 91 c176 -47 162 -24 158 -259 -2 -109 -6 -202 -10 -206 -11 -10 -271 26
-284 40 -11 11 -37 433 -27 449 8 13 46 7 163 -24z m-2696 -46 c-9 -14 -163
-67 -172 -58 -4 3 57 40 123 73 43 22 68 15 49 -15z m818 -259 c-2 -206 -7
-292 -15 -300 -7 -6 -88 -30 -182 -54 -93 -23 -231 -60 -305 -81 -74 -22 -145
-39 -157 -39 l-23 0 1 278 c1 152 4 290 8 307 6 29 8 30 196 77 213 54 455
107 470 104 6 -2 9 -105 7 -292z m-817 -217 c0 -209 -3 -301 -11 -308 -9 -8
-507 -179 -520 -179 -2 0 -31 54 -64 120 l-60 120 0 170 0 171 43 18 c23 10
139 50 257 89 118 39 235 78 260 86 25 8 56 14 70 13 l25 -2 0 -298z m2684
-1884 c65 -34 95 -71 95 -118 0 -44 -28 -82 -80 -109 -57 -31 -222 -30 -279 1
-74 39 -104 88 -85 139 44 114 213 156 349 87z m-3304 -115 c86 -44 112 -93
75 -141 -44 -56 -179 -61 -279 -10 -99 51 -108 116 -21 161 60 31 152 27 225
-10z"/>
<path d="M6877 7477 c-119 -79 -227 -152 -238 -164 -15 -14 -21 -33 -21 -59 2
-58 137 -605 153 -614 17 -11 16 -11 277 158 175 113 224 150 229 170 7 29
-11 153 -27 183 -16 29 -46 23 -126 -27 -87 -54 -104 -87 -86 -168 10 -49 4
-63 -38 -86 -23 -12 -34 1 -49 62 -22 90 -23 88 111 174 146 94 158 105 158
145 0 34 -67 324 -82 352 -5 9 -16 17 -26 16 -9 0 -115 -64 -235 -142z m62
-119 c16 -50 41 -160 41 -183 0 -23 -57 -63 -70 -49 -10 12 -50 177 -50 208 0
24 32 56 56 56 7 0 17 -15 23 -32z"/>
<path d="M6225 7055 c-210 -137 -235 -164 -235 -252 0 -43 113 -531 131 -565
14 -26 27 -23 100 26 117 79 122 119 49 420 -27 114 -50 215 -50 226 0 10 12
28 27 40 22 17 29 18 39 8 7 -7 38 -116 68 -242 32 -129 64 -238 73 -248 28
-31 80 -23 148 25 54 39 60 47 63 82 4 55 -119 559 -143 585 -36 39 -68 27
-270 -105z"/>
<path d="M5680 7000 c-41 -27 -80 -57 -87 -66 -26 -36 -7 -154 25 -154 20 0
152 82 177 110 33 36 14 151 -25 157 -8 1 -49 -20 -90 -47z"/>
<path d="M5333 6775 c-83 -55 -103 -77 -103 -114 0 -33 200 -854 212 -868 17
-21 31 -16 111 36 127 83 126 34 7 529 -94 392 -117 472 -138 472 -4 0 -44
-25 -89 -55z"/>
<path d="M5740 6739 c-88 -58 -100 -72 -100 -113 1 -51 137 -597 153 -613 17
-17 22 -15 128 54 75 48 85 66 75 136 -4 23 -37 164 -74 312 -59 237 -69 270
-87 272 -11 1 -54 -21 -95 -48z"/>
<path d="M7060 6444 c-96 -63 -183 -123 -193 -132 -32 -29 -50 -74 -50 -127 0
-40 166 -758 189 -819 12 -30 36 -24 123 34 108 71 110 78 78 210 -12 52 -21
103 -19 112 2 9 53 49 113 88 179 116 181 123 104 447 -31 131 -65 252 -74
268 -14 25 -24 30 -56 32 -36 2 -60 -11 -215 -113z m57 -106 c6 -7 34 -112 63
-232 l52 -219 -23 -18 c-13 -10 -32 -19 -41 -19 -19 0 -19 -2 -78 245 -22 94
-43 178 -46 187 -3 11 5 27 22 43 31 28 38 30 51 13z"/>
<path d="M5100 6321 c-83 -44 -359 -231 -378 -256 -12 -15 -27 -46 -33 -68
-12 -45 -1 -104 84 -442 40 -161 43 -170 67 -172 36 -3 130 64 157 112 13 23
23 57 23 80 0 22 -25 141 -55 264 -56 235 -57 248 -14 272 17 8 24 8 34 -3 6
-7 35 -112 64 -233 29 -123 60 -231 70 -245 29 -41 68 -38 142 12 38 26 67 54
73 69 12 36 -115 575 -142 600 -28 27 -55 30 -92 10z"/>
<path d="M6620 6153 c-8 -4 -99 -61 -202 -129 -132 -86 -191 -131 -202 -153
-34 -64 -30 -103 33 -361 52 -217 62 -247 86 -268 20 -16 35 -22 52 -17 26 6
353 214 391 249 36 32 54 75 54 125 0 25 -25 152 -56 281 -48 200 -60 238 -82
258 -25 22 -45 26 -74 15z m-120 -235 c6 -13 32 -115 60 -228 l49 -205 -25
-23 c-48 -42 -54 -32 -105 178 -66 270 -64 255 -37 279 28 27 46 27 58 -1z"/>
<path d="M4475 5915 c-16 -7 -109 -65 -205 -127 -149 -98 -177 -121 -197 -158
-13 -24 -23 -59 -23 -79 0 -20 26 -146 59 -280 62 -259 72 -281 126 -281 17 0
280 161 391 240 38 27 64 81 64 133 0 57 -105 502 -126 535 -8 12 -18 22 -23
22 -5 0 -15 2 -23 5 -7 2 -26 -2 -43 -10z m-68 -416 c29 -112 51 -217 50 -234
-2 -33 -48 -68 -66 -50 -5 6 -33 109 -62 229 l-53 219 28 24 c16 13 33 22 40
20 6 -2 34 -95 63 -208z"/>
<path d="M8134 849 c-69 -20 -81 -75 -28 -124 51 -47 173 -41 196 10 8 19 7
31 -9 57 -29 50 -98 75 -159 57z"/>
<path d="M4850 747 c-35 -18 -35 -39 -2 -75 36 -39 109 -53 147 -28 16 11 22
22 18 34 -11 31 -46 62 -82 72 -46 13 -51 12 -81 -3z"/>
</g>
</svg>
